<?xml version="1.0" encoding="UTF-8"?><svg id="Layer_1" xmlns="http://www.w3.org/2000/svg" viewBox="0 0 429.52 54.05"><defs><style>.cls-1{fill:#d9825b;}</style></defs><path class="cls-1" d="M19.84,44.43c-4.18,0-7.58-3.4-7.58-7.58v-17.81l-.76.41c-3.79,2.02-6.65,3.05-6.77,3.1-.39.14-.79.21-1.19.21-1.48,0-2.82-.94-3.32-2.34-.66-1.83.29-3.86,2.12-4.52.55-.2,13.74-5.11,19.76-14.3.65-1,1.76-1.6,2.96-1.6.7,0,1.38.21,1.96.6,1.61,1.07,2.03,3.3.93,4.95-2.04,3.09-4.87,6.04-8.42,8.77l-.2.16v19.34c0,1.96,1.59,3.56,3.56,3.56h11.67c1.96,0,3.56-1.59,3.56-3.56v-16.08l-.27-.15c-2.97-1.59-4.86-3.25-5.53-3.89l-.04-.04c-1.34-1.24-1.26-3.11-.77-4.03.38-.73.92-1.54,2.48-1.96.14-.04.38-.09.68-.09.6,0,1.55.19,2.59,1.09.33.3,1.95,1.76,4.62,3.07.22.11.43.21.65.31l.04.02h.04c.29.09.57.21.83.37l.03.02h.04c2.6,1.06,5.34,1.58,8.13,1.58.74,0,1.5-.04,2.25-.11.12-.01.24-.02.35-.02,1.82,0,3.33,1.37,3.51,3.18.19,1.94-1.23,3.67-3.16,3.86-.98.1-1.97.15-2.94.15-1.96,0-3.93-.2-5.85-.6l-.62-.13v16.49c0,4.18-3.4,7.58-7.58,7.58h-17.74Z"/><path class="cls-1" d="M79.8,15.74h-9.73v-6.29h26.18v6.29h-9.73v28.1h-6.73V15.74Z"/><path class="cls-1" d="M100.33,8.86h6.88v5.75h-6.88v-5.75ZM100.43,18.54h6.68v25.3h-6.68v-25.3Z"/><path class="cls-1" d="M141.05,23.8c-2.85,0-4.76,2.41-4.76,6.43v13.61h-6.68v-13.9c0-3.78-1.82-6.14-4.62-6.14s-4.72,2.36-4.72,6.43v13.61h-6.68v-25.3h6.48v4.22c1.42-3.04,4.17-4.81,7.56-4.81s6.09,1.96,7.32,5.26c1.47-3.24,4.52-5.26,8.2-5.26,5.45,0,9.18,4.52,9.18,10.71v15.18h-6.68v-13.75c0-3.93-1.87-6.29-4.62-6.29Z"/><path class="cls-1" d="M157.16,31.51c0-7.47,5.11-13.56,12.33-13.56s11.64,5.21,11.64,13.85c0,.44,0,.93-.05,1.38h-17.83c.25,3.19,3.14,5.6,7.56,5.6,3.19,0,6.24-1.13,8.64-2.95v5.8c-2.75,1.92-5.89,2.8-8.99,2.8-8.06,0-13.31-5.6-13.31-12.92ZM174.94,28.71c-.49-3.19-2.6-5.5-5.7-5.5s-5.35,2.26-5.89,5.5h11.59Z"/><path class="cls-1" d="M186.09,7.73h6.68v36.1h-6.68V7.73Z"/><path class="cls-1" d="M196.4,52.87v-5.65c1.42.69,2.95.98,4.72.98,2.8,0,4.76-1.28,6.09-3.93l-11.35-25.74h7.42l7.07,18.52,5.65-18.52h7.32l-9.68,25.39c-2.51,6.68-6.53,10.12-12.03,10.12-1.96,0-3.73-.44-5.21-1.18Z"/><path class="cls-1" d="M233.78,15.74h-9.73v-6.29h26.18v6.29h-9.73v28.1h-6.73V15.74Z"/><path class="cls-1" d="M248.52,31.16c0-7.27,5.85-13.21,13.11-13.21s13.11,5.94,13.11,13.26-5.84,13.21-13.11,13.21-13.11-5.89-13.11-13.26ZM261.63,38.48c3.68,0,6.63-3.24,6.63-7.27s-2.95-7.32-6.63-7.32-6.63,3.29-6.63,7.37,2.95,7.22,6.63,7.22Z"/><path class="cls-1" d="M280.5,51.4l-.05-6.14c2.65,1.82,5.4,3,8.94,3,4.13,0,7.76-2.21,7.76-6.88v-1.87c-1.82,2.01-4.37,3.05-7.17,3.05-6.53,0-11.69-5.4-11.69-12.23s4.91-12.38,11.35-12.38c3.05,0,5.7,1.42,7.61,3.73v-3.14h6.19v22.59c0,7.81-5.55,12.92-13.46,12.92-3.88,0-7.17-1.08-9.48-2.65ZM291.11,36.86c3.49,0,6.39-2.51,6.39-6.63s-2.9-6.68-6.39-6.68-6.29,2.95-6.29,6.68,2.65,6.63,6.29,6.63Z"/><path class="cls-1" d="M308.49,31.51c0-7.47,5.11-13.56,12.33-13.56s11.64,5.21,11.64,13.85c0,.44,0,.93-.05,1.38h-17.83c.25,3.19,3.14,5.6,7.56,5.6,3.19,0,6.24-1.13,8.64-2.95v5.8c-2.75,1.92-5.89,2.8-8.99,2.8-8.06,0-13.31-5.6-13.31-12.92ZM326.27,28.71c-.49-3.19-2.6-5.5-5.7-5.5s-5.35,2.26-5.89,5.5h11.59Z"/><path class="cls-1" d="M347.64,44.43c-5.45,0-9.04-3.39-9.04-10.27v-9.92h-3.34v-5.7h3.34v-7.37h6.58v7.37h6.09v5.7h-6.24v10.36c0,2.41,1.33,3.98,3.98,3.98.74,0,1.52-.1,2.26-.34v5.45c-1.08.44-2.36.74-3.63.74Z"/><path class="cls-1" d="M368.12,23.8c-3,0-5.16,2.55-5.16,6.43v13.61h-6.68V7.73h6.68v10.81c0,1.42-.05,2.9-.15,4.37,1.52-3.09,4.37-4.96,8.1-4.96,5.45,0,9.04,3.93,9.04,10.61v15.28h-6.68v-13.61c0-4.08-1.92-6.43-5.16-6.43Z"/><path class="cls-1" d="M384.83,31.51c0-7.47,5.11-13.56,12.33-13.56s11.64,5.21,11.64,13.85c0,.44,0,.93-.05,1.38h-17.83c.25,3.19,3.14,5.6,7.56,5.6,3.19,0,6.24-1.13,8.64-2.95v5.8c-2.75,1.92-5.89,2.8-8.99,2.8-8.06,0-13.31-5.6-13.31-12.92ZM402.61,28.71c-.49-3.19-2.6-5.5-5.7-5.5s-5.35,2.26-5.89,5.5h11.59Z"/><path class="cls-1" d="M413.76,18.54h6.29v5.21c1.57-3.73,4.72-5.8,9.14-5.8l.34.05v6.48c-.59-.1-1.23-.2-1.87-.2-4.32,0-7.22,3.59-7.22,8.84v10.71h-6.68v-25.3Z"/></svg>